<?xml version="1.0" standalone="no"?>
<!DOCTYPE svg PUBLIC "-//W3C//DTD SVG 1.1//EN" "http://www.w3.org/Graphics/SVG/1.1/DTD/svg11.dtd">
<!--Generator: Xara Designer (www.xara.com), SVG filter version: 6.0.0.4-->
<svg stroke-width="0.501" stroke-linejoin="bevel" fill-rule="evenodd" xmlns:xlink="http://www.w3.org/1999/xlink" xmlns="http://www.w3.org/2000/svg" version="1.1" overflow="visible" width="375pt" height="375pt" viewBox="0 0 375 375">
 <defs>
	</defs>
 <g id="Document" fill="none" stroke="black" font-family="Times New Roman" font-size="16" transform="scale(1 -1)">
  <g id="Spread" transform="translate(0 -375)">
   <g id="Layer 1">
    <path d="M 817.764,264.406 L 817.764,-94.125 L 1192.31,-94.125 L 1192.31,264.406 L 817.764,264.406 Z" stroke-opacity="0.000000" stroke="none" stroke-width="0.584" fill="#2e49d4" stroke-linejoin="miter" marker-start="none" marker-end="none" stroke-miterlimit="79.8403193612775" fill-opacity="0.000000"/>
    <g id="Group" stroke="none">
     <path d="M 103.865,138.085 C 104.14,137.762 104.378,137.451 104.595,137.177 C 105.158,136.418 105.669,135.51 105.957,134.583 C 113.073,138.569 122.211,142.064 129.147,141.127 C 132.174,140.732 134.903,139.244 136.532,137.129 C 137.955,135.289 138.529,133 137.717,130.592 C 141.551,132.97 145.933,134.745 149.934,136.221 C 151.944,136.949 154.092,137.816 156.351,138.7 C 155.352,140.218 154.334,141.718 153.211,143.17 C 151.545,145.315 149.578,147.132 147.818,149.163 C 132.967,146.199 118.31,142.483 103.865,138.085 Z" fill="#ffce00" stroke-linejoin="miter" stroke-width="0.33" marker-start="none" marker-end="none" stroke-miterlimit="79.8403193612775"/>
     <path d="M 112.731,108.39 C 113.006,108.242 113.264,108.043 113.421,107.687 C 122.963,86.077 132.699,64.591 143.347,43.47 C 145.914,38.378 148.269,32.947 151.289,28.07 C 156.752,19.273 164.415,18.797 173.624,20.184 C 179.35,21.059 185.435,22.577 190.59,25.216 C 200.921,30.487 197.433,39.253 193.631,47.309 C 190.986,46.204 188.286,45.355 186.08,44.668 C 180.525,42.943 174.787,41.752 168.969,41.219 C 165.667,40.908 159.425,39.855 156.545,41.674 C 151.227,45.039 153.016,53.286 155.457,58.146 C 152.723,58.427 150.175,59.203 148.015,60.739 C 140.832,65.874 141.883,74.764 147.732,80.253 C 147.777,80.307 147.822,80.315 147.862,80.34 C 147.497,80.281 147.146,80.202 146.782,80.147 C 139.023,77.816 130.623,81.258 127.992,89.094 C 126.517,93.53 127.676,98.348 130.652,101.69 C 124.081,101.648 119.585,106.962 119.389,113.024 C 117.49,111.171 115.207,109.602 112.731,108.39 Z" fill="#ffce00" stroke-linejoin="miter" stroke-width="0.33" marker-start="none" marker-end="none" stroke-miterlimit="79.8403193612775"/>
     <path d="M 216.968,353.822 C 203.51,331.691 212.873,307.049 218.533,283.532 C 218.967,283.808 213.024,283.309 213.689,283.237 C 227.587,282.015 256.837,279.329 261.199,265.413 C 265.501,251.701 242.7,226.078 230.835,218.482 C 242.106,198.526 258.815,177.351 281.986,165.238 C 282.071,165.177 284.023,177.4 284.092,177.354 C 288.98,208.993 278.361,253.867 264.877,283.694 C 258.114,298.621 248.515,315.845 240.162,330.204 C 232.28,343.755 226.473,350.188 216.968,353.822 Z" fill="#ebe6da" stroke-linejoin="miter" stroke-width="0.334" marker-start="none" marker-end="none" stroke-miterlimit="79.8403193612775"/>
     <path d="M 223.819,285.214 C 225.753,275.516 228.506,265.901 231.665,256.574 C 234.199,249.182 236.996,241.772 240.255,234.541 C 244.406,238.569 251.188,239.774 255.039,244.07 C 259.253,248.814 264.762,260.159 263.533,266.834 C 261.036,280.422 236.21,283.404 223.819,285.214 Z" fill="#000000" stroke-linejoin="miter" stroke-width="0.33" marker-start="none" marker-end="none" stroke-miterlimit="79.8403193612775"/>
     <text xml:space="preserve" transform="translate(278.046 306.81) scale(1 -1) scale(1.03957 1)" font-size="52.752" fill="#2e49d4" font-family="Impact" stroke-width="0.221" stroke-linecap="round" stroke-linejoin="round" stroke-miterlimit="79.8403193612775"><tspan x="0" y="0">$</tspan></text>
     <text xml:space="preserve" transform="translate(285.874 250.926) scale(1 -1) scale(1.03957 1)" font-size="39.904" fill="#ffce00" font-family="Impact" stroke-width="0.167" stroke-linecap="round" stroke-linejoin="round" stroke-miterlimit="79.8403193612775"><tspan x="0" y="0">$</tspan></text>
     <text xml:space="preserve" transform="translate(332.373 264.635) scale(1 -1) scale(1.03957 1)" font-size="61.644" fill="#ffce00" font-family="Impact" stroke-width="0.258" stroke-linecap="round" stroke-linejoin="round" stroke-miterlimit="79.8403193612775"><tspan x="0" y="0">$</tspan></text>
     <g id="Group_1" fill-rule="evenodd" stroke-linejoin="miter" stroke-width="0.093" stroke-miterlimit="79.8403193612775">
      <path d="M 247.871,121.419 L 356.443,121.419 C 363.316,121.419 368.878,116.782 368.878,111.051 L 368.878,76.513 C 368.878,70.77 363.316,66.152 356.443,66.152 L 317.503,66.152 L 322.841,55.234 L 299.344,66.152 L 247.914,66.152 C 241.048,66.152 235.485,70.77 235.485,76.513 L 235.485,111.051 C 235.417,116.746 240.991,121.419 247.871,121.419 Z" fill="#2e49d4" marker-start="none" marker-end="none"/>
      <path d="M 243.07,111.965 C 243.837,112.838 244.98,113.287 246.497,113.37 C 249.256,113.555 250.842,112.474 251.198,110.119 C 252.889,100.678 254.737,92.671 256.691,86.128 L 268.57,104.975 C 269.656,106.683 271.017,107.591 272.634,107.676 C 275.019,107.825 276.479,106.546 277.078,103.887 C 278.44,97.876 280.175,92.767 282.222,88.417 C 283.645,99.913 286.029,108.183 289.382,113.287 C 290.212,114.547 291.392,115.181 292.959,115.276 C 294.22,115.366 295.356,115.037 296.386,114.374 C 297.41,113.693 297.953,112.838 298.065,111.792 C 298.109,110.986 297.953,110.305 297.516,109.63 C 295.406,106.367 293.664,100.911 292.26,93.316 C 290.899,85.942 290.418,80.206 290.737,76.089 C 290.856,74.966 290.637,73.967 290.088,73.095 C 289.444,72.115 288.465,71.572 287.216,71.476 C 285.805,71.386 284.345,71.923 282.952,73.149 C 277.883,77.439 273.876,83.863 270.955,92.408 C 267.434,86.617 264.825,82.274 263.152,79.393 C 259.949,74.284 257.227,71.667 254.962,71.524 C 253.482,71.434 252.24,72.473 251.167,74.637 C 248.389,80.559 245.41,92.008 242.221,108.942 C 241.997,110.119 242.314,111.153 243.07,111.965 Z M 359.609,104.879 C 357.667,107.723 354.777,109.439 350.938,110.119 C 349.908,110.305 348.928,110.395 348.004,110.395 C 342.804,110.395 338.559,108.13 335.263,103.618 C 332.448,99.764 331.031,95.527 331.031,90.878 C 331.031,87.389 331.899,84.401 333.634,81.915 C 335.588,79.071 338.466,77.356 342.318,76.681 C 343.341,76.483 344.315,76.4 345.239,76.4 C 350.495,76.4 354.727,78.665 357.986,83.188 C 360.801,87.06 362.218,91.309 362.218,95.975 C 362.274,99.495 361.344,102.441 359.609,104.879 Z M 352.78,92.366 C 352.012,89.373 350.657,87.161 348.653,85.661 C 347.08,84.49 345.614,84 344.265,84.234 C 342.967,84.455 341.874,85.392 341.062,87.161 C 340.407,88.566 340.095,89.964 340.095,91.272 C 340.095,92.408 340.195,93.537 340.47,94.577 C 340.956,96.429 341.874,98.234 343.341,99.949 C 345.132,102.166 347.037,103.068 348.978,102.758 C 350.283,102.537 351.375,101.581 352.181,99.812 C 352.836,98.419 353.16,97.021 353.16,95.694 C 353.16,94.523 353.042,93.406 352.78,92.366 Z M 325.657,104.879 C 323.715,107.723 320.788,109.439 316.992,110.119 C 315.962,110.305 314.989,110.395 314.071,110.395 C 308.852,110.395 304.626,108.13 301.305,103.618 C 298.502,99.764 297.085,95.527 297.085,90.878 C 297.085,87.389 297.953,84.401 299.682,81.915 C 301.649,79.071 304.52,77.356 308.372,76.681 C 309.407,76.483 310.369,76.4 311.299,76.4 C 316.562,76.4 320.788,78.665 324.04,83.188 C 326.855,87.06 328.278,91.309 328.278,95.975 C 328.278,99.495 327.398,102.441 325.657,104.879 Z M 318.784,92.366 C 318.01,89.373 316.662,87.161 314.651,85.661 C 313.084,84.49 311.618,84 310.269,84.234 C 308.971,84.455 307.866,85.392 307.06,87.161 C 306.411,88.566 306.086,89.964 306.086,91.272 C 306.086,92.408 306.205,93.537 306.48,94.577 C 306.954,96.429 307.866,98.234 309.345,99.949 C 311.136,102.166 313.034,103.068 314.989,102.758 C 316.28,102.537 317.361,101.581 318.185,99.812 C 318.827,98.419 319.151,97.021 319.151,95.694 C 319.208,94.523 319.046,93.406 318.784,92.366 Z" fill="#ffffff" marker-start="none" marker-end="none"/>
     </g>
     <text xml:space="preserve" transform="translate(321.437 210.245) scale(1 -1) scale(1.03957 1)" font-size="39.904" fill="#2e49d4" font-family="Impact" stroke-width="0.167" stroke-linecap="round" stroke-linejoin="round" stroke-miterlimit="79.8403193612775"><tspan x="0" y="0">$</tspan></text>
     <path d="M 222.301,348.963 L 285.274,176.179 C 287.567,169.886 283.014,163.179 276.26,163.077 C 235.583,162.338 209.485,163.23 162.196,152.684 L 151.469,163.108 L 111.387,273.083 L 112.895,287.953 C 155.787,310.186 174.844,327.284 206.964,353.213 C 212.205,357.47 220.007,355.256 222.301,348.963 Z" fill="#2e49d4" stroke-width="0.611" fill-rule="evenodd" stroke-linejoin="miter" marker-start="none" marker-end="none" stroke-miterlimit="79.8403193612775"/>
     <path d="M 250.791,262.212 L 282.278,175.82 C 284.57,169.528 280.018,162.821 273.264,162.718 C 232.587,161.979 206.488,162.871 159.2,152.326 L 148.472,162.749 L 128.432,217.736 L 250.791,262.212 Z" fill="#2e49d4" stroke-width="0.611" fill-rule="evenodd" stroke-linejoin="miter" marker-start="none" marker-end="none" stroke-miterlimit="79.8403193612775"/>
     <path d="M 71.655,144.475 C 46.354,135.278 18.28,148.352 9.071,173.62 C -0.138,198.888 12.952,226.924 38.255,236.121 C 43.32,237.962 48.926,235.355 50.771,230.293 L 77.492,156.974 C 79.337,151.913 76.721,146.316 71.655,144.475 Z" fill="#c4cad9" stroke-width="0.611" fill-rule="evenodd" stroke-linejoin="miter" marker-start="none" marker-end="none" stroke-miterlimit="79.8403193612775"/>
     <path d="M 9.071,173.62 C 18.28,148.352 46.354,135.278 71.655,144.475 C 76.721,146.316 79.337,151.913 77.492,156.975 L 64.131,193.634 L 9.07,173.621 Z" fill="#b8bfcc" stroke-width="0.611" fill-rule="evenodd" stroke-linejoin="miter" marker-start="none" marker-end="none" stroke-miterlimit="79.8403193612775"/>
     <path d="M 112.896,287.954 L 162.197,152.684 C 131.183,145.769 112.84,138.688 96.689,132.816 C 81.517,127.303 64.661,135.151 59.138,150.303 L 32.417,223.621 C 26.894,238.773 34.755,255.606 49.927,261.122 C 65.834,266.903 84.628,273.319 112.896,287.954 Z" fill="#ffce00" stroke-width="0.611" fill-rule="evenodd" stroke-linejoin="miter" marker-start="none" marker-end="none" stroke-miterlimit="79.8403193612775"/>
     <path d="M 91.282,152 L 149.282,31.966 L 194.132,45.671 L 136.133,165.705 L 91.282,152 Z" stroke-width="0.325" fill="#ffce00" stroke-linejoin="miter" marker-start="none" marker-end="none" stroke-miterlimit="79.8403193612775"/>
     <path d="M 137.547,220.319 L 162.197,152.684 C 131.183,145.769 112.84,138.688 96.689,132.816 C 81.517,127.303 64.661,135.151 59.138,150.303 L 45.777,186.962 L 137.547,220.319 Z" fill="#e5bb05" stroke-width="0.611" fill-rule="evenodd" stroke-linejoin="miter" marker-start="none" marker-end="none" stroke-miterlimit="79.8403193612775"/>
    </g>
   </g>
  </g>
 </g>
</svg>
